<svg aria-hidden="true" style="position: absolute; width: 0; height: 0; overflow: hidden;" version="1.1" xmlns="http://www.w3.org/2000/svg" xmlns:xlink="http://www.w3.org/1999/xlink">
<defs>
<symbol id="icon-svg-usb" viewBox="0 0 126 32">
<path d="M103.68 25.289c0 1.876 0 3.525 0 5.337-0.704 0-1.28 0-1.824 0-12.256 0-24.48 0-36.736 0-3.808 0-4.832-1.035-4.832-4.884 0-2.038 0-4.075 0-6.307-20.128 0-40.16 0-60.288 0 0-2.296 0-4.431 0-6.76 20.032 0 40.064 0 60.288 0 0-2.361 0-4.561 0-6.728 0-3.396 1.12-4.561 4.48-4.561 12.448 0 24.896 0 37.376 0 0.48 0 0.928 0.065 1.536 0.097 0 1.811 0 3.558 0 5.498 0.672 0.032 1.248 0.065 1.792 0.065 5.792 0 11.616 0 17.408 0 2.464 0 2.88 0.42 2.88 2.879 0 4.075 0 8.151 0 12.226 0 2.717-0.352 3.073-3.008 3.073-5.696 0-11.392 0-17.088 0-0.608 0.065-1.184 0.065-1.984 0.065zM122.336 10.605c-6.304 0-12.416 0-18.528 0 0 3.784 0 7.471 0 11.126 6.24 0 12.352 0 18.528 0 0-3.752 0-7.375 0-11.126z"></path>
<path d="M116.96 19.467c-1.088 0-2.080 0-3.168 0 0-2.232 0-4.366 0-6.598 1.088 0 2.080 0 3.168 0 0 2.167 0 4.334 0 6.598z"></path>
</symbol>
<symbol id="icon-svg-bat" viewBox="0 0 20 32">
<path d="M11.556 6.402c0.358 0.213 0.413 0.344 0.303 0.759-0.469 1.839-0.937 3.684-1.406 5.523-0.005 0.016-0.005 0.033-0.011 0.065 0.061 0 0.116 0.005 0.171 0.005 1.218 0 2.437 0 3.65 0 0.221 0 0.413 0.049 0.529 0.251s0.061 0.387-0.061 0.579c-1.935 3.035-3.865 6.075-5.794 9.115-0.127 0.202-0.287 0.328-0.535 0.3-0.298-0.038-0.48-0.317-0.402-0.622 0.226-0.895 0.452-1.79 0.678-2.685 0.248-0.982 0.502-1.965 0.75-2.953 0.005-0.027 0.011-0.049 0.017-0.093-0.066 0-0.127 0-0.187 0-1.218 0-2.437 0-3.65 0-0.215 0-0.402-0.049-0.513-0.246-0.121-0.202-0.066-0.387 0.055-0.579 1.935-3.035 3.865-6.075 5.8-9.109 0.077-0.126 0.221-0.213 0.336-0.317 0.099 0.005 0.182 0.005 0.27 0.005z"></path>
<path d="M3.258 32c-0.595 0-1.152-0.36-1.637-0.677-1.147-0.753-1.621-1.883-1.621-3.237 0.005-5.687 0.005-11.369 0.005-17.056 0-1.561-0.005-3.122 0-4.688 0.005-2.309 1.593-3.881 3.925-3.886 0.336 0 0.667 0 1.042 0 0-0.371 0-0.71 0-1.048 0.006-0.917 0.502-1.408 1.428-1.408 2.365 0 4.736 0 7.101 0 0.926 0 1.422 0.491 1.428 1.408 0 0.333 0 0.666 0 1.048 0.336 0 0.662-0.027 0.976 0.005 0.491 0.049 0.998 0.066 1.456 0.213 1.582 0.508 2.525 1.888 2.53 3.64 0.006 1.397 0 2.789 0 4.186 0 5.851-0.006 11.707 0.006 17.558 0 1.364-0.463 2.505-1.621 3.264-0.485 0.317-0.915 0.677-1.637 0.677-4.455 0-8.92 0-13.38 0zM7.465 4.929c-1.235 0-2.409 0-3.589 0-0.893 0-1.384 0.486-1.384 1.37 0 7.292 0 14.578 0 21.87 0 0.862 0.491 1.37 1.362 1.37 4.063 0.005 8.121 0.005 12.184 0 0.871 0 1.367-0.502 1.367-1.37 0-7.303 0-14.6 0-21.903 0-0.846-0.496-1.337-1.351-1.343-1.086-0.005-2.167 0-3.253 0-0.11 0-0.226 0-0.38 0 0-0.841 0-1.643 0-2.451-1.67 0-3.297 0-4.956 0 0 0.824 0 1.621 0 2.456z"></path>
<path d="M9.951 24.621c1.599 0 3.198 0 4.796 0 0.932 0 1.411 0.475 1.417 1.408 0 0.366 0.011 0.731-0.011 1.092-0.044 0.704-0.54 1.168-1.251 1.19-0.43 0.011-0.86 0.005-1.296 0.005-2.795 0-5.596 0-8.391 0-1.014 0-1.478-0.464-1.478-1.474 0-0.333-0.011-0.666 0.006-0.999 0.039-0.737 0.535-1.212 1.285-1.212 1.643-0.016 3.286-0.011 4.923-0.011z"></path>
</symbol>
</defs>
</svg>
